<?xml version="1.0" encoding="utf-8"?>
<!-- Generator: Adobe Illustrator 25.0.0, SVG Export Plug-In . SVG Version: 6.00 Build 0)  -->
<svg version="1.1" id="Layer_1" xmlns="http://www.w3.org/2000/svg" xmlns:xlink="http://www.w3.org/1999/xlink" x="0px" y="0px"
	 viewBox="0 0 2000 2000" style="enable-background:new 0 0 2000 2000;" xml:space="preserve">
<style type="text/css">
	.st0{fill:#010101;}
</style>
<g>
	<path class="st0" d="M501.61,921.62h-266.3V532.95h266.3v60.02H303.5v100.81h194.04v60.02H303.5v107.8h198.11V921.62z"/>
	<path class="st0" d="M783.06,926.57h-61.18v-30.3c-21.77,24.87-52.06,37.29-90.9,37.29c-25.64,0-48.37-8.25-68.18-24.77
		c-19.81-16.5-29.71-39.33-29.71-68.47c0-29.91,9.8-52.63,29.42-68.17c19.62-15.53,42.44-23.31,68.47-23.31
		c40,0,70.31,12.05,90.9,36.13v-41.95c0-16.32-6.03-29.14-18.06-38.46c-12.05-9.32-27.97-13.99-47.79-13.99
		c-31.46,0-59.24,11.86-83.32,35.55l-25.06-42.53c31.85-30.31,71.28-45.45,118.29-45.45c34.57,0,62.73,8.16,84.49,24.47
		c21.75,16.32,32.63,42.15,32.63,77.5V926.57z M654.86,891.61c30.68,0,53.03-9.71,67.01-29.14v-42.54
		c-13.99-19.42-36.33-29.14-67.01-29.14c-17.48,0-31.86,4.66-43.12,13.99c-11.27,9.32-16.9,21.56-16.9,36.71
		c0,15.16,5.62,27.3,16.9,36.42C623,887.05,637.38,891.61,654.86,891.61z"/>
	<path class="st0" d="M936.89,933.56c-50.51,0-90.71-14.57-120.62-43.7l27.97-44.29c10.49,10.88,24.66,20.2,42.53,27.97
		c17.86,7.78,35.55,11.66,53.03,11.66c17.86,0,31.56-3.5,41.08-10.49c9.52-6.99,14.28-16.11,14.28-27.38
		c0-10.1-5.83-17.96-17.49-23.6c-11.65-5.62-25.84-10.09-42.53-13.4c-16.71-3.29-33.41-7.37-50.12-12.23
		c-16.7-4.85-30.88-13.49-42.54-25.93c-11.65-12.43-17.48-28.56-17.48-48.37c0-24.08,9.91-44.37,29.72-60.89
		c19.81-16.51,46.81-24.77,80.99-24.77c43.12,0,79.63,13.21,109.55,39.62l-25.64,43.12c-8.94-10.1-20.78-18.26-35.54-24.47
		c-14.77-6.21-30.7-9.32-47.79-9.32c-15.93,0-28.65,3.21-38.17,9.62c-9.52,6.41-14.27,14.66-14.27,24.76
		c0,7.78,4.17,14.09,12.53,18.94c8.35,4.86,18.83,8.45,31.47,10.78c12.62,2.33,26.31,5.54,41.08,9.62
		c14.76,4.08,28.45,8.84,41.08,14.27c12.62,5.45,23.1,14.28,31.47,26.51c8.35,12.24,12.53,27.1,12.53,44.58
		c0,25.64-10.29,46.62-30.88,62.93C1002.54,925.41,973.79,933.56,936.89,933.56z"/>
	<path class="st0" d="M1087.89,1034.95l9.32-54.77c6.99,3.11,14.76,4.66,23.31,4.66c19.81,0,33.21-8.16,40.21-24.47l13.99-32.05
		l-115.38-284.94h65.26l82.16,210.94l82.16-210.94h65.84L1219,975.52c-16.71,41.56-48.95,62.73-96.73,63.52
		C1109.44,1039.03,1097.98,1037.67,1087.89,1034.95z"/>
	<path class="st0" d="M303.5,1359.53h-68.18V970.87h170.73c39.24,0,70.22,11.66,92.94,34.96c22.73,23.31,34.09,52.26,34.09,86.82
		c0,34.19-11.36,63.03-34.09,86.53c-22.72,23.51-53.7,35.25-92.94,35.25H303.5V1359.53z M396.73,1154.42
		c19.42,0,35.35-5.62,47.78-16.9c12.43-11.26,18.65-26.22,18.65-44.87c0-18.64-6.22-33.59-18.65-44.86
		c-12.43-11.26-28.36-16.9-47.78-16.9H303.5v123.53H396.73z"/>
	<path class="st0" d="M783.06,1356.11h-61.18v-30.3c-21.77,24.87-52.06,37.29-90.9,37.29c-25.64,0-48.37-8.25-68.18-24.77
		c-19.81-16.5-29.71-39.33-29.71-68.47c0-29.91,9.8-52.63,29.42-68.17c19.62-15.53,42.44-23.31,68.47-23.31
		c40,0,70.31,12.05,90.9,36.13v-41.95c0-16.32-6.03-29.14-18.06-38.46c-12.05-9.32-27.97-13.99-47.79-13.99
		c-31.46,0-59.24,11.86-83.32,35.55l-25.06-42.53c31.85-30.31,71.28-45.45,118.29-45.45c34.57,0,62.73,8.16,84.49,24.47
		c21.75,16.32,32.63,42.15,32.63,77.5V1356.11z M654.86,1321.15c30.68,0,53.03-9.71,67.01-29.14v-42.54
		c-13.99-19.42-36.33-29.14-67.01-29.14c-17.48,0-31.86,4.66-43.12,13.99c-11.27,9.32-16.9,21.56-16.9,36.71
		c0,15.16,5.62,27.3,16.9,36.42C623,1316.59,637.38,1321.15,654.86,1321.15z"/>
	<path class="st0" d="M1142.29,1359.53h-64.1l-65.27-206.28l-65.27,206.28h-64.1l-87.4-281.45h63.51l59.43,204.53l67.01-204.53
		h53.61l67.01,204.53l59.43-204.53h63.51L1142.29,1359.53z"/>
	<path class="st0" d="M1346.82,1363.1c-50.51,0-90.71-14.57-120.62-43.7l27.97-44.29c10.49,10.88,24.66,20.2,42.53,27.97
		c17.86,7.78,35.55,11.66,53.03,11.66c17.86,0,31.56-3.5,41.08-10.49c9.52-6.99,14.28-16.11,14.28-27.38
		c0-10.1-5.83-17.96-17.49-23.6c-11.65-5.62-25.84-10.09-42.53-13.4c-16.71-3.29-33.41-7.37-50.12-12.23
		c-16.7-4.85-30.88-13.49-42.54-25.93c-11.65-12.43-17.48-28.56-17.48-48.37c0-24.08,9.91-44.37,29.72-60.89
		c19.81-16.51,46.81-24.77,80.99-24.77c43.12,0,79.63,13.21,109.55,39.62l-25.64,43.12c-8.94-10.1-20.78-18.26-35.54-24.47
		c-14.77-6.21-30.7-9.32-47.79-9.32c-15.93,0-28.65,3.21-38.17,9.62c-9.52,6.41-14.27,14.66-14.27,24.76
		c0,7.78,4.17,14.09,12.53,18.94c8.35,4.86,18.83,8.45,31.47,10.78c12.62,2.33,26.31,5.54,41.08,9.62
		c14.76,4.08,28.45,8.84,41.08,14.27c12.62,5.45,23.1,14.28,31.47,26.51c8.35,12.24,12.53,27.1,12.53,44.58
		c0,25.64-10.29,46.62-30.88,62.93C1412.46,1354.95,1383.72,1363.1,1346.82,1363.1z"/>
	<path class="st0" d="M1497.81,1462.96l9.32-54.77c6.99,3.11,14.76,4.66,23.31,4.66c19.81,0,33.21-8.16,40.21-24.47l13.99-32.05
		l-115.38-284.94h65.26l82.16,210.94l82.16-210.94h65.84l-135.76,332.14c-16.71,41.56-48.95,62.73-96.73,63.52
		C1519.37,1467.05,1507.91,1465.68,1497.81,1462.96z"/>
</g>
</svg>
