<?xml version="1.0" encoding="utf-8"?>
<!-- Generator: Adobe Illustrator 25.0.0, SVG Export Plug-In . SVG Version: 6.00 Build 0)  -->
<svg version="1.1" id="Layer_1" xmlns="http://www.w3.org/2000/svg" xmlns:xlink="http://www.w3.org/1999/xlink" x="0px" y="0px"
	 viewBox="0 0 2000 2000" style="enable-background:new 0 0 2000 2000;" xml:space="preserve">
<style type="text/css">
	.st0{fill:#010101;}
</style>
<g>
	<polygon class="st0" points="1032.22,905.6 897.08,905.6 897.08,832.07 1029.43,832.07 1029.43,791.13 897.08,791.13 
		897.08,722.37 1032.22,722.37 1032.22,681.43 850.58,681.43 850.58,946.54 1032.22,946.54 	"/>
	<path class="st0" d="M1201.93,769.87c-14.85-11.13-34.05-16.69-57.63-16.69c-32.06,0-58.96,10.33-80.69,31l17.09,29.01
		c16.43-16.16,35.38-24.25,56.83-24.25c13.51,0,24.38,3.18,32.59,9.54c8.21,6.36,12.32,15.1,12.32,26.23v28.62
		c-14.05-16.43-34.72-24.64-62-24.64c-17.76,0-33.32,5.31-46.71,15.9c-13.38,10.6-20.07,26.1-20.07,46.5
		c0,19.87,6.75,35.44,20.27,46.7c13.51,11.27,29.02,16.89,46.51,16.89c26.49,0,47.16-8.48,62-25.44v20.67h41.73V822.73
		C1224.19,798.62,1216.77,781,1201.93,769.87z M1182.46,906.19c-9.54,13.25-24.78,19.87-45.71,19.87c-11.92,0-21.73-3.11-29.41-9.34
		c-7.69-6.22-11.52-14.51-11.52-24.84c0-10.33,3.84-18.68,11.52-25.04c7.68-6.36,17.49-9.54,29.41-9.54
		c20.93,0,36.17,6.63,45.71,19.87V906.19z"/>
	<path class="st0" d="M1359.13,914.54c-6.5,4.77-15.84,7.16-28.02,7.16c-11.92,0-23.98-2.64-36.17-7.95
		c-12.19-5.3-21.86-11.66-29.01-19.08l-19.08,30.21c20.4,19.87,47.82,29.81,82.28,29.81c25.17,0,44.77-5.56,58.82-16.69
		c14.04-11.13,21.06-25.44,21.06-42.93c0-11.92-2.85-22.06-8.54-30.41c-5.7-8.34-12.86-14.37-21.46-18.08
		c-8.62-3.7-17.95-6.95-28.02-9.73c-10.07-2.78-19.41-4.97-28.02-6.56c-8.62-1.59-15.77-4.04-21.46-7.35
		c-5.7-3.31-8.54-7.61-8.54-12.92c0-6.89,3.24-12.52,9.73-16.89c6.49-4.37,15.17-6.56,26.03-6.56c11.66,0,22.52,2.13,32.59,6.36
		c10.07,4.24,18.14,9.8,24.24,16.69l17.49-29.41c-20.41-18.02-45.31-27.03-74.72-27.03c-23.32,0-41.73,5.63-55.24,16.89
		c-13.51,11.27-20.27,25.11-20.27,41.53c0,13.51,3.98,24.51,11.92,32.99c7.95,8.48,17.62,14.37,29.02,17.69
		c11.39,3.32,22.79,6.1,34.18,8.34c11.39,2.26,21.06,5.31,29.01,9.14c7.95,3.85,11.93,9.21,11.93,16.1
		C1368.87,903.55,1365.62,909.77,1359.13,914.54z"/>
	<path class="st0" d="M1481.79,972.97c-4.77,11.13-13.91,16.69-27.43,16.69c-5.83,0-11.13-1.06-15.9-3.18l-6.36,37.36
		c6.89,1.85,14.7,2.79,23.45,2.79c32.59-0.54,54.58-14.98,65.98-43.33l92.6-226.55h-44.91l-56.04,143.88l-56.04-143.88h-44.51
		l78.7,194.35L1481.79,972.97z"/>
	<path class="st0" d="M1030.43,1003.98c-15.5-15.9-36.63-23.85-63.39-23.85H850.58v265.11h46.51v-98.97h69.95
		c26.76,0,47.9-8.01,63.39-24.05c15.5-16.03,23.25-35.7,23.25-59.02C1053.68,1039.62,1045.93,1019.88,1030.43,1003.98z
		 M993.27,1093.8c-8.48,7.69-19.34,11.52-32.59,11.52h-63.59v-84.26h63.59c13.25,0,24.11,3.85,32.59,11.53
		c8.48,7.69,12.72,17.88,12.72,30.6C1005.99,1075.92,1001.74,1086.12,993.27,1093.8z"/>
	<path class="st0" d="M1201.93,1062.85c-14.85-11.13-34.05-16.69-57.63-16.69c-32.06,0-58.96,10.33-80.69,31l17.09,29.01
		c16.43-16.16,35.38-24.24,56.83-24.24c13.51,0,24.38,3.18,32.59,9.54c8.21,6.36,12.32,15.1,12.32,26.23v28.62
		c-14.05-16.43-34.72-24.64-62-24.64c-17.76,0-33.32,5.31-46.71,15.9c-13.38,10.6-20.07,26.1-20.07,46.5
		c0,19.87,6.75,35.44,20.27,46.7c13.51,11.27,29.02,16.89,46.51,16.89c26.49,0,47.16-8.48,62-25.44v20.67h41.73v-127.19
		C1224.19,1091.6,1216.77,1073.98,1201.93,1062.85z M1182.46,1199.18c-9.54,13.25-24.78,19.87-45.71,19.87
		c-11.92,0-21.73-3.11-29.41-9.34c-7.69-6.22-11.52-14.51-11.52-24.84c0-10.33,3.84-18.68,11.52-25.04
		c7.68-6.36,17.49-9.54,29.41-9.54c20.93,0,36.17,6.63,45.71,19.87V1199.18z"/>
	<polygon class="st0" points="1485.51,1053.26 1444.97,1192.77 1399.27,1053.26 1362.7,1053.26 1316.99,1192.77 1276.45,1053.26 
		1233.13,1053.26 1292.74,1245.24 1336.46,1245.24 1380.98,1104.53 1425.5,1245.24 1469.22,1245.24 1528.83,1053.26 	"/>
	<path class="st0" d="M1658.61,1139.56c-8.62-3.7-17.95-6.95-28.02-9.73c-10.07-2.78-19.41-4.97-28.02-6.56
		c-8.62-1.59-15.77-4.04-21.46-7.35c-5.7-3.31-8.54-7.61-8.54-12.92c0-6.89,3.24-12.52,9.73-16.89c6.49-4.37,15.17-6.56,26.03-6.56
		c11.66,0,22.52,2.13,32.59,6.36c10.07,4.24,18.14,9.8,24.24,16.69l17.49-29.41c-20.41-18.02-45.31-27.03-74.72-27.03
		c-23.32,0-41.73,5.63-55.24,16.89c-13.51,11.27-20.27,25.11-20.27,41.53c0,13.51,3.98,24.51,11.92,32.99
		c7.95,8.48,17.62,14.37,29.02,17.69c11.39,3.32,22.79,6.1,34.18,8.34c11.39,2.26,21.06,5.31,29.01,9.14
		c7.95,3.85,11.93,9.21,11.93,16.1c0,7.69-3.25,13.91-9.74,18.68c-6.5,4.77-15.84,7.16-28.02,7.16c-11.92,0-23.98-2.64-36.17-7.95
		c-12.19-5.3-21.86-11.66-29.01-19.08l-19.08,30.21c20.4,19.87,47.82,29.81,82.28,29.81c25.17,0,44.77-5.56,58.82-16.69
		c14.04-11.13,21.06-25.44,21.06-42.93c0-11.92-2.85-22.06-8.54-30.41C1674.37,1149.3,1667.22,1143.27,1658.61,1139.56z"/>
	<path class="st0" d="M1848.84,1048.69l-56.04,143.88l-56.04-143.88h-44.51l78.7,194.35l-9.54,21.86
		c-4.77,11.13-13.91,16.69-27.43,16.69c-5.83,0-11.13-1.06-15.9-3.18l-6.35,37.36c6.89,1.85,14.7,2.79,23.45,2.79
		c32.59-0.54,54.58-14.98,65.98-43.33l92.6-226.55H1848.84z"/>
	<path class="st0" d="M346,1036.36c12.1,0,22-9.9,22-22v0c0-12.1-9.9-22-22-22h0c-12.1,0-22,9.9-22,22v0
		C324.01,1026.46,333.9,1036.36,346,1036.36L346,1036.36z"/>
	<path class="st0" d="M741.46,881.77h-175.1c0-120.98-123.73-123.73-123.73-123.73h-86.16V656.3
		c-218.14,64.16-250.22,269.46-250.22,269.46c97.15-65.07,199.81-103.53,199.81-103.53l0,65.95
		c111.4,32.79,106.99,139.08,111.82,137.48l19.58,18.13c2.06,1.91,3.2,4.65,2.96,7.45c-8.62,103.6-127.38,102.69-194.86,105.48
		c-48.33,1.99-91.65,32.08-91.65,32.08c75.16,127.4,202.56,154.9,202.56,154.9s-21.08-194.31,207.14-206.22
		c204.53-10.68,191.16-207.59,186.18-248.36C749.28,884.91,745.69,881.77,741.46,881.77z M498.87,861.14
		c0,13.08-10.71,23.79-23.79,23.79h0c-13.08,0-23.79-10.71-23.79-23.79v0c0-13.08,10.71-23.79,23.79-23.79h0
		C488.17,837.35,498.87,848.06,498.87,861.14L498.87,861.14z"/>
</g>
</svg>
