<?xml version="1.0" encoding="utf-8"?>
<!-- Generator: Adobe Illustrator 25.0.0, SVG Export Plug-In . SVG Version: 6.00 Build 0)  -->
<svg version="1.1" id="Layer_1" xmlns="http://www.w3.org/2000/svg" xmlns:xlink="http://www.w3.org/1999/xlink" x="0px" y="0px"
	 viewBox="0 0 2000 2000" style="enable-background:new 0 0 2000 2000;" xml:space="preserve">
<style type="text/css">
	.st0{fill:#010101;}
</style>
<g>
	<path class="st0" d="M838.39,1070.69c23.52,0,42.77-19.25,42.77-42.77c0-23.52-19.25-42.77-42.77-42.77h0
		c-23.52,0-42.77,19.25-42.77,42.77C795.62,1051.44,814.87,1070.69,838.39,1070.69L838.39,1070.69z"/>
	<path class="st0" d="M1623.52,784.39c-1-8.19-7.95-14.29-16.2-14.29h-337.01c-1.92,0-3.46-1.55-3.48-3.47
		c-2.35-231.83-240.57-237.12-240.57-237.12H862.22c-1.92,0-3.48-1.56-3.48-3.48V336.37c0-2.33-2.25-4.02-4.49-3.34
		C469.81,448.55,385.31,790.3,373.73,847.49c-0.62,3.05,2.75,5.3,5.35,3.59c169.75-112.44,346.06-182.95,376.91-194.91
		c2.28-0.89,4.74,0.8,4.74,3.25l0,120.58c0,1.54,1.02,2.89,2.49,3.33c210.7,63.58,205.8,263.27,214.51,266.57l1.69,1.18l38.09,35.27
		c5.4,5,4.67,12.28,3.88,19.59c-21.01,195.12-248.47,193.45-378.28,198.81c-83.96,3.47-160.15,50.53-175.44,60.52
		c-1.56,1.02-2.05,3.1-1.09,4.71c134.42,225.29,352.76,288.41,387.45,297.2c2.3,0.58,4.48-1.24,4.32-3.6
		c-2.92-43.64-11.29-374.61,403.15-396.25C1659.19,1246.56,1633.2,863.66,1623.52,784.39z M1135.63,730.01
		c0,25.44-20.82,46.26-46.26,46.26l0,0c-25.44,0-46.26-20.82-46.26-46.26v0c0-25.44,20.82-46.26,46.26-46.26h0
		C1114.82,683.75,1135.63,704.56,1135.63,730.01L1135.63,730.01z"/>
</g>
</svg>
